# xmcd
#
# Track frame offsets: 
#        150
#        17630
#        43842
#        66997
#        94225
#        113410
#        140412
#        167685
#        185852
#        208512
#
# Disc length: 3200 seconds
#
# Revision: 4
# Processed by: cddbd v1.5.2PL0 Copyright (c) Steve Scherf et al.
# Submitted via: ExactAudioCopy v1.0b3
#
DISCID=8c0c7e0a
DTITLE=綾戸智絵 - Shine
DYEAR=2003
DGENRE=Jazz
TTITLE0=Ooh Child
TTITLE1=Feel Like Makin' Love
TTITLE2=Ain't No Sunshine - Lean On Me
TTITLE3=A Whiter Shade Of Pale
TTITLE4=Yello Moon
TTITLE5=The House Of The Rising Sun
TTITLE6=Goodbye Pork Pie Hat
TTITLE7=Don't Let Me Be Lonely Tonight
TTITLE8=All Blues
TTITLE9=You Are So Beautiful
EXTD=YEAR: 2003
EXTT0=
EXTT1=
EXTT2=
EXTT3=
EXTT4=
EXTT5=
EXTT6=
EXTT7=
EXTT8=
EXTT9=
PLAYORDER=
